<?xml version="1.0" encoding="UTF-8" standalone="no"?>
<!-- Created with Inkscape (http://www.inkscape.org/) -->

<svg
   xmlns:dc="http://purl.org/dc/elements/1.1/"
   xmlns:cc="http://creativecommons.org/ns#"
   xmlns:rdf="http://www.w3.org/1999/02/22-rdf-syntax-ns#"
   xmlns:svg="http://www.w3.org/2000/svg"
   xmlns="http://www.w3.org/2000/svg"
   version="1.1"
   width="600"
   height="683"
   id="svg2"
   xml:space="preserve"><metadata
     id="metadata73"><rdf:RDF><cc:Work
         rdf:about=""><dc:format>image/svg+xml</dc:format><dc:type
           rdf:resource="http://purl.org/dc/dcmitype/StillImage" /><dc:title></dc:title></cc:Work></rdf:RDF></metadata><defs
     id="defs6"><clipPath
       id="clipPath56"><path
         d="m 268.68652,390.55029 c -26.39013,1.84815 -47.99756,-21.7041 -46.26611,-47.08593 1.73242,-25.38135 28.53516,-44.08594 47.17383,-42.85401 18.63818,1.23242 50.38965,17.22608 50.71924,38.91065 0.33056,23.90283 -13.44287,48.31884 -51.62696,51.02929 z"
         id="path58" /></clipPath></defs><g
     transform="matrix(1.25,0,0,-1.25,0,990)"
     id="g10"><path
       d="m 108.75713,486.35342 c 22.01953,51.1333 115.87109,159.18945 144.65332,176.80908 35.62793,-24.14941 72.08057,-127.15527 79.17285,-147.36133 2.63916,-7.14648 9.97949,-35.11474 18.30811,-68.99902 -0.82471,0.73974 -1.64893,1.35547 -2.39209,2.21777 -65.39893,60.74365 -190.59034,48.66944 -239.74219,37.3335 z"
       id="path12"
       style="fill:#222222;fill-opacity:1;fill-rule:evenodd;stroke:none" /><path
       d="m 423.38359,567.05703 c 12.28711,-3.6958 37.44141,-19.83691 36.94727,-27.72217 -0.33057,-8.87158 -91.2959,-59.75732 -95.50293,-62.83789 -6.59668,7.39307 -16.07959,10.59522 -22.43066,7.02246 l 10.55566,-44.23339 c 8.33008,0.3706 16.98975,16.26513 15.5874,26.12158 2.8042,5.91406 112.07715,54.21289 111.74805,73.43457 -0.41162,18.48047 -44.28613,43.61572 -49.15283,46.32666 0.24756,4.9292 -4.78272,13.43017 -18.22657,14.4165 -10.72021,0.73828 -18.88574,-1.60205 -20.61718,-12.07519 -1.73194,-10.47315 8.7417,-23.04004 22.68066,-23.04004 3.54443,0 6.26563,0.98486 8.41113,2.58691 z"
       id="path14"
       style="fill:#222222;fill-opacity:1;fill-rule:evenodd;stroke:none" /><path
       d="m 110.81914,604.26699 c -10.80371,-0.8623 -66.88379,4.06592 -77.02832,4.43506 -10.39038,0.49365 -29.0293,3.69727 -32.16284,-3.94189 -3.13428,-7.88575 0.32983,-13.79932 5.11328,-23.41065 4.94751,-9.36328 65.81079,-79.34765 70.75903,-83.29101 -2.30908,-8.37842 0.65967,-32.03565 17.31934,-41.64551 l 21.77246,48.54541 c -6.7627,11.08935 -24.41162,13.06103 -34.47412,3.94287 -7.42139,7.39209 -63.66602,69.98389 -69.27466,84.52295 11.21607,-0.24609 92.03735,-3.94287 98.30493,-3.44971 0.0825,0.12354 0.16553,0.24658 0.24756,0.37012 2.72168,-6.28418 8.90723,-6.53125 13.36084,-6.53125 6.02002,0 14.84473,3.81982 20.94775,8.625 6.10254,4.80517 -7.75341,21.43945 -13.85546,23.04053 -5.44336,1.35547 -17.81397,-1.10889 -21.02979,-11.21192 z"
       id="path16"
       style="fill:#222222;fill-opacity:1;fill-rule:evenodd;stroke:none" /><path
       d="M 253.32842,663.03896 C 224.38213,645.29678 129.53936,536.00723 108.17998,485.121 86.81963,434.23525 60.10039,368.81045 48.55303,316.56777 c -11.5459,-52.2417 -9.64942,-56.06103 15.09179,-53.59716 24.74219,2.46435 80.73682,47.66943 127.90918,49.0249 47.17383,1.35547 101.11182,-58.38867 148.12159,-61.09961 47.0083,-2.71094 43.54443,21.5625 43.54443,44.2334 0,22.6709 -43.62695,200.58789 -50.71924,220.67187 -7.09326,20.08301 -43.54443,123.08789 -79.17236,147.23779 z"
       id="path18"
       style="fill:none;stroke:#222222;stroke-width:10;stroke-linecap:butt;stroke-linejoin:miter;stroke-miterlimit:4;stroke-opacity:1;stroke-dasharray:none" /><path
       d="m 128.05547,628.66299 c -3.9585,13.06103 -35.54492,53.59765 -39.09033,66.53418 -3.54737,12.93701 3.13281,22.05469 11.21435,22.79443 22.51514,2.09473 18.63819,-49.90137 30.10254,-49.03906 11.46387,0.86328 15.91699,22.42432 15.91699,29.44775 0,7.02295 -10.96923,39.55127 4.37061,41.40039 26.63818,3.20264 4.86621,-62.34619 18.30859,-62.59228 13.4419,-0.24658 19.87549,34.62207 31.50391,34.12939 11.62891,-0.49218 7.83496,-22.91748 6.51514,-27.84619 -1.31983,-4.92822 -19.79297,-18.97412 -22.6792,-23.90283 -2.88672,-4.92725 -10.63868,-15.15479 -17.07178,-28.58496 -6.43262,-13.43018 0.4126,-26.85986 1.07226,-41.27637 0.65967,-14.41504 -5.27783,-30.55615 -11.05078,-34.25293 -5.77295,-3.69531 -4.70166,11.08936 -3.95898,22.42529 0.74219,11.33497 -7.42285,14.0459 -13.85498,23.65625 -6.43311,9.61133 -8.65869,18.35889 -11.29834,27.10694 z"
       id="path20"
       style="fill:#222222;fill-opacity:1;fill-rule:evenodd;stroke:none" /><path
       d="m 181.33135,668.43545 c -9.5669,-10.22656 -25.31885,-34.1294 -29.19434,-47.06641"
       id="path22"
       style="fill:none;stroke:#ffffff;stroke-width:1;stroke-linecap:butt;stroke-linejoin:miter;stroke-miterlimit:4;stroke-opacity:1;stroke-dasharray:none" /><path
       d="m 138.3001,660.00918 c 2.47363,-12.81397 3.21679,-33.2666 0,-41.27588"
       id="path24"
       style="fill:none;stroke:#ffffff;stroke-width:1;stroke-linecap:butt;stroke-linejoin:miter;stroke-miterlimit:4;stroke-opacity:1;stroke-dasharray:none" /><path
       d="m 142.79912,665.64346 c 4.61817,-11.21241 3.87598,-36.34766 0.65918,-42.7544"
       id="path26"
       style="fill:none;stroke:#ffffff;stroke-width:1;stroke-linecap:butt;stroke-linejoin:miter;stroke-miterlimit:4;stroke-opacity:1;stroke-dasharray:none" /><path
       d="m 163.14434,636.58779 c -3.5459,-13.43017 -5.27784,-21.93115 -3.87598,-31.0498"
       id="path28"
       style="fill:none;stroke:#ffffff;stroke-width:1;stroke-linecap:butt;stroke-linejoin:miter;stroke-miterlimit:4;stroke-opacity:1;stroke-dasharray:none" /><path
       d="m 145.67412,601.04238 c 7.83447,-5.91406 11.05029,-5.91406 15.66895,-7.51611"
       id="path30"
       style="fill:none;stroke:#ffffff;stroke-width:1;stroke-linecap:butt;stroke-linejoin:miter;stroke-miterlimit:4;stroke-opacity:1;stroke-dasharray:none" /><path
       d="m 208.79424,728.95742 c 8.90576,2.09424 12.45361,-8.13281 11.38086,-16.14111"
       id="path32"
       style="fill:none;stroke:#a7a5a6;stroke-width:2.85080004;stroke-linecap:butt;stroke-linejoin:miter;stroke-miterlimit:4;stroke-opacity:1;stroke-dasharray:none" /><path
       d="m 134.32305,757.78848 c 3.5459,10.71972 12.12353,23.65722 28.86474,2.21777"
       id="path34"
       style="fill:none;stroke:#a7a5a6;stroke-width:2.85080004;stroke-linecap:butt;stroke-linejoin:miter;stroke-miterlimit:4;stroke-opacity:1;stroke-dasharray:none" /><path
       d="m 78.07793,739.06094 c -6.10254,7.51562 -12.04102,1.72461 -16.74219,-11.70557"
       id="path36"
       style="fill:none;stroke:#a7a5a6;stroke-width:2.85080004;stroke-linecap:butt;stroke-linejoin:miter;stroke-miterlimit:4;stroke-opacity:1;stroke-dasharray:none" /><path
       d="m 330.60332,695.93643 c -5.52393,-0.24707 -8.3291,-5.29737 -7.99951,-20.45264 0.33057,-15.15576 14.18555,-59.01856 13.19531,-68.0127 -0.98926,-8.99511 -23.99951,-21.80908 -23.99951,-53.96728 0,-7.51611 1.56738,-18.48145 9.73193,-18.3584 8.16504,0.12354 12.28858,3.44971 12.86524,9.97949 0.57763,6.53076 -1.56641,24.1499 5.44336,29.94141 2.0625,1.60156 10.06201,3.44971 28.7832,2.83349 11.46289,-0.37011 15.33838,-11.33593 20.2041,-7.63964 4.86621,3.69677 31.83399,19.46728 33.1543,29.32519 1.31885,9.85645 -10.63867,8.25488 -15.75293,22.17774 -5.11231,13.92236 -2.72119,21.80761 -2.72119,32.28125 0.65967,8.37841 16.82373,18.85156 18.88574,29.69433 2.06201,10.84229 -2.80371,17.00293 -10.88574,17.00293 -14.84473,0.12354 -30.34815,-41.52246 -36.20557,-49.77734 -5.85498,-8.25537 -6.18408,21.80859 -3.38086,30.80273 2.80371,8.99512 12.20606,24.27344 -1.56738,29.32422 -13.77197,5.05176 -14.76221,-12.32031 -15.00928,-20.82275 -0.24756,-8.50147 -4.28808,-39.67334 -10.22656,-40.16651 -9.15381,1.10889 -2.96826,46.57373 -14.51465,45.83448 z"
       id="path38"
       style="fill:#222222;fill-opacity:1;fill-rule:evenodd;stroke:none" /><path
       d="m 403.09551,655.15322 c -2.06201,-4.8042 -3.46338,-7.88574 -3.46338,-14.16894"
       id="path40"
       style="fill:none;stroke:#a7a5a6;stroke-width:1;stroke-linecap:butt;stroke-linejoin:miter;stroke-miterlimit:4;stroke-opacity:1;stroke-dasharray:none" /><path
       d="m 366.14824,626.81436 c 0,-10.96534 0.33106,-22.67041 4.8667,-32.52784"
       id="path42"
       style="fill:none;stroke:#ffffff;stroke-width:1;stroke-linecap:butt;stroke-linejoin:miter;stroke-miterlimit:4;stroke-opacity:1;stroke-dasharray:none" /><path
       d="m 307.26445,739.43008 c 4.86524,7.39306 12.53565,10.96582 18.47364,4.18945"
       id="path44"
       style="fill:none;stroke:#a7a5a6;stroke-width:2.85080004;stroke-linecap:butt;stroke-linejoin:miter;stroke-miterlimit:4;stroke-opacity:1;stroke-dasharray:none" /><path
       d="m 359.88066,738.9374 c 4.53663,7.26905 8.99073,10.96582 15.66993,2.5874"
       id="path46"
       style="fill:none;stroke:#a7a5a6;stroke-width:2.85080004;stroke-linecap:butt;stroke-linejoin:miter;stroke-miterlimit:4;stroke-opacity:1;stroke-dasharray:none" /><path
       d="m 438.22783,703.82168 c 1.07276,-7.88525 2.96924,-7.26904 -0.90722,-12.56689"
       id="path48"
       style="fill:none;stroke:#a7a5a6;stroke-width:2.85080004;stroke-linecap:butt;stroke-linejoin:miter;stroke-miterlimit:4;stroke-opacity:1;stroke-dasharray:none" /><path
       d="m 307.59404,782.06143 c 9.81446,6.77636 10.72119,12.07519 18.72217,4.06591"
       id="path50"
       style="fill:none;stroke:#a7a5a6;stroke-width:2.85080004;stroke-linecap:butt;stroke-linejoin:miter;stroke-miterlimit:4;stroke-opacity:1;stroke-dasharray:none" /><g
       transform="translate(-52.8,145.6)"
       id="g52"><g
         clip-path="url(#clipPath56)"
         id="g54"><path
           d="m 327.65381,360.09766 c 0,62.46826 -33.97803,113.23144 -75.87451,113.23144 -41.81153,0 -75.79053,-50.76318 -75.79053,-113.23144 0,-62.59131 33.979,-113.3545 75.79053,-113.3545 41.89648,0 75.87451,50.76319 75.87451,113.3545 l 0,0 m -3.79395,0 c 0,-59.38819 -32.32812,-107.68653 -72.08056,-107.68653 -39.74951,0 -71.99561,48.29834 -71.99561,107.68653 0,59.38818 32.2461,107.56347 71.99561,107.56347 39.75244,0 72.08056,-48.17529 72.08056,-107.56347 z"
           id="path60"
           style="fill:#ed1c24;fill-opacity:1;fill-rule:evenodd;stroke:none" /><path
           d="m 325.75586,360.09766 c 0,60.98974 -33.15234,110.39843 -73.97656,110.39843 -40.82227,0 -73.89307,-49.40869 -73.89307,-110.39843 0,-60.99024 33.0708,-110.521 73.89307,-110.521 40.82422,0 73.97656,49.53076 73.97656,110.521 l 0,0 m -3.79248,0 c 0,-57.90967 -31.42139,-104.85303 -70.18408,-104.85303 -38.67725,0 -70.09912,46.94336 -70.09912,104.85303 0,57.78613 31.42187,104.73047 70.09912,104.73047 38.76269,0 70.18408,-46.94434 70.18408,-104.73047 z"
           id="path62"
           style="fill:#ed2025;fill-opacity:1;fill-rule:evenodd;stroke:none" /><path
           d="m 323.85986,360.09766 c 0,59.38818 -32.32812,107.56347 -72.08056,107.56347 -39.74951,0 -71.99561,-48.17529 -71.99561,-107.56347 0,-59.38819 32.2461,-107.68653 71.99561,-107.68653 39.75244,0 72.08056,48.29834 72.08056,107.68653 l 0,0 m -3.79394,0 c 0,-56.30762 -30.59619,-102.01856 -68.28662,-102.01856 -37.68799,0 -68.20264,45.71094 -68.20264,102.01856 0,56.18457 30.51465,101.8955 68.20264,101.8955 37.69043,0 68.28662,-45.71093 68.28662,-101.8955 z"
           id="path64"
           style="fill:#ee2427;fill-opacity:1;fill-rule:evenodd;stroke:none" /><path
           d="m 321.96338,360.09766 c 0,57.78613 -31.42139,104.73047 -70.18408,104.73047 -38.67725,0 -70.09912,-46.94434 -70.09912,-104.73047 0,-57.90967 31.42187,-104.85303 70.09912,-104.85303 38.76269,0 70.18408,46.94336 70.18408,104.85303 l 0,0 m -3.79346,0 c 0,-54.70606 -29.77197,-99.18506 -66.39062,-99.18506 -36.6167,0 -66.30518,44.479 -66.30518,99.18506 0,54.70605 29.68848,99.0625 66.30518,99.0625 36.61865,0 66.39062,-44.35645 66.39062,-99.0625 z"
           id="path66"
           style="fill:#ee272a;fill-opacity:1;fill-rule:evenodd;stroke:none" /><path
           d="m 320.06592,360.09766 c 0,56.18457 -30.59619,101.8955 -68.28662,101.8955 -37.68799,0 -68.20264,-45.71093 -68.20264,-101.8955 0,-56.30762 30.51465,-102.01856 68.20264,-102.01856 37.69043,0 68.28662,45.71094 68.28662,102.01856 l 0,0 m -3.79395,0 c 0,-53.22754 -28.94726,-96.35108 -64.49267,-96.35108 -35.54395,0 -64.40918,43.12354 -64.40918,96.35108 0,53.10449 28.86523,96.22754 64.40918,96.22754 35.54541,0 64.49267,-43.12305 64.49267,-96.22754 z"
           id="path68"
           style="fill:#ee2b2c;fill-opacity:1;fill-rule:evenodd;stroke:none" /><path
           d="m 318.16992,360.09766 c 0,54.70605 -29.77197,99.0625 -66.39062,99.0625 -36.6167,0 -66.30518,-44.35645 -66.30518,-99.0625 0,-54.70606 29.68848,-99.18506 66.30518,-99.18506 36.61865,0 66.39062,44.479 66.39062,99.18506 l 0,0 m -3.79394,0 c 0,-51.62598 -28.04004,-93.51758 -62.59668,-93.51758 -34.55518,0 -62.51221,41.8916 -62.51221,93.51758 0,51.50293 27.95703,93.39453 62.51221,93.39453 34.55664,0 62.59668,-41.8916 62.59668,-93.39453 z"
           id="path70"
           style="fill:#ef2f2e;fill-opacity:1;fill-rule:evenodd;stroke:none" /><path
           d="m 316.27197,360.09766 c 0,53.10449 -28.94726,96.22754 -64.49267,96.22754 -35.54395,0 -64.40918,-43.12305 -64.40918,-96.22754 0,-53.22754 28.86523,-96.35108 64.40918,-96.35108 35.54541,0 64.49267,43.12354 64.49267,96.35108 l 0,0 m -3.79297,0 c 0,-50.02344 -27.21484,-90.6836 -60.6997,-90.6836 -33.48242,0 -60.61524,40.66016 -60.61524,90.6836 0,50.02343 27.13282,90.56054 60.61524,90.56054 33.48486,0 60.6997,-40.53711 60.6997,-90.56054 z"
           id="path72"
           style="fill:#ef3330;fill-opacity:1;fill-rule:evenodd;stroke:none" /><path
           d="m 314.37598,360.09766 c 0,51.50293 -28.04004,93.39453 -62.59668,93.39453 -34.55518,0 -62.51221,-41.8916 -62.51221,-93.39453 0,-51.62598 27.95703,-93.51758 62.51221,-93.51758 34.55664,0 62.59668,41.8916 62.59668,93.51758 l 0,0 m -3.79297,0 c 0,-48.42188 -26.39014,-87.8501 -58.80371,-87.8501 -32.41114,0 -58.71875,39.42822 -58.71875,87.8501 0,48.42236 26.30761,87.72656 58.71875,87.72656 32.41357,0 58.80371,-39.3042 58.80371,-87.72656 z"
           id="path74"
           style="fill:#ef3633;fill-opacity:1;fill-rule:evenodd;stroke:none" /><path
           d="m 312.479,360.09766 c 0,50.02343 -27.21484,90.56054 -60.6997,90.56054 -33.48242,0 -60.61524,-40.53711 -60.61524,-90.56054 0,-50.02344 27.13282,-90.6836 60.61524,-90.6836 33.48486,0 60.6997,40.66016 60.6997,90.6836 l 0,0 m -3.79492,0 c 0,-46.94434 -25.48242,-85.01563 -56.90478,-85.01563 -31.33789,0 -56.82178,38.07129 -56.82178,85.01563 0,46.81982 25.48389,84.89257 56.82178,84.89257 31.42236,0 56.90478,-38.07275 56.90478,-84.89257 z"
           id="path76"
           style="fill:#f03a35;fill-opacity:1;fill-rule:evenodd;stroke:none" /><path
           d="m 310.58301,360.09766 c 0,48.42236 -26.39014,87.72656 -58.80371,87.72656 -32.41114,0 -58.71875,-39.3042 -58.71875,-87.72656 0,-48.42188 26.30761,-87.8501 58.71875,-87.8501 32.41357,0 58.80371,39.42822 58.80371,87.8501 l 0,0 m -3.79444,0 c 0,-45.3418 -24.65918,-82.18213 -55.00927,-82.18213 -30.34815,0 -54.92432,36.84033 -54.92432,82.18213 0,45.34228 24.57617,82.05908 54.92432,82.05908 30.35009,0 55.00927,-36.7168 55.00927,-82.05908 z"
           id="path78"
           style="fill:#f03e38;fill-opacity:1;fill-rule:evenodd;stroke:none" /><path
           d="m 308.68408,360.09766 c 0,46.81982 -25.48242,84.89257 -56.90478,84.89257 -31.33789,0 -56.82178,-38.07275 -56.82178,-84.89257 0,-46.94434 25.48389,-85.01563 56.82178,-85.01563 31.42236,0 56.90478,38.07129 56.90478,85.01563 l 0,0 m -3.79297,0 c 0,-43.74024 -23.83398,-79.34766 -53.11181,-79.34766 -29.27637,0 -53.02784,35.60742 -53.02784,79.34766 0,43.73974 23.75147,79.22461 53.02784,79.22461 29.27783,0 53.11181,-35.48487 53.11181,-79.22461 z"
           id="path80"
           style="fill:#f0423c;fill-opacity:1;fill-rule:evenodd;stroke:none" /><path
           d="m 306.78857,360.09766 c 0,45.34228 -24.65918,82.05908 -55.00927,82.05908 -30.34815,0 -54.92432,-36.7168 -54.92432,-82.05908 0,-45.3418 24.57617,-82.18213 54.92432,-82.18213 30.35009,0 55.00927,36.84033 55.00927,82.18213 l 0,0 m -3.79394,0 c 0,-42.26123 -22.92627,-76.51416 -51.21533,-76.51416 -28.2041,0 -51.13135,34.25293 -51.13135,76.51416 0,42.13818 22.92725,76.39111 51.13135,76.39111 28.28906,0 51.21533,-34.25293 51.21533,-76.39111 z"
           id="path82"
           style="fill:#f1463e;fill-opacity:1;fill-rule:evenodd;stroke:none" /><path
           d="m 304.89111,360.09766 c 0,43.73974 -23.83398,79.22461 -53.11181,79.22461 -29.27637,0 -53.02784,-35.48487 -53.02784,-79.22461 0,-43.74024 23.75147,-79.34766 53.02784,-79.34766 29.27783,0 53.11181,35.60742 53.11181,79.34766 l 0,0 m -3.79345,0 c 0,-40.65967 -22.10205,-73.68116 -49.31836,-73.68116 -27.21485,0 -49.23535,33.02149 -49.23535,73.68116 0,40.53662 22.0205,73.55761 49.23535,73.55761 27.21631,0 49.31836,-33.02099 49.31836,-73.55761 z"
           id="path84"
           style="fill:#f14a41;fill-opacity:1;fill-rule:evenodd;stroke:none" /><path
           d="m 302.99463,360.09766 c 0,42.13818 -22.92627,76.39111 -51.21533,76.39111 -28.2041,0 -51.13135,-34.25293 -51.13135,-76.39111 0,-42.26123 22.92725,-76.51416 51.13135,-76.51416 28.28906,0 51.21533,34.25293 51.21533,76.51416 l 0,0 m -3.79346,0 c 0,-39.05762 -21.27734,-70.8462 -47.42187,-70.8462 -26.14258,0 -47.33741,31.78858 -47.33741,70.8462 0,39.0581 21.19483,70.72363 47.33741,70.72363 26.14453,0 47.42187,-31.66553 47.42187,-70.72363 z"
           id="path86"
           style="fill:#f25144;fill-opacity:1;fill-rule:evenodd;stroke:none" /><path
           d="m 301.09766,360.09766 c 0,40.53662 -22.10205,73.55761 -49.31836,73.55761 -27.21485,0 -49.23535,-33.02099 -49.23535,-73.55761 0,-40.65967 22.0205,-73.68116 49.23535,-73.68116 27.21631,0 49.31836,33.02149 49.31836,73.68116 l 0,0 m -3.79297,0 c 0,-37.57959 -20.45313,-68.01221 -45.52539,-68.01221 -25.07129,0 -45.44043,30.43262 -45.44043,68.01221 0,37.45703 20.36914,67.89013 45.44043,67.89013 25.07226,0 45.52539,-30.4331 45.52539,-67.89013 z"
           id="path88"
           style="fill:#f25549;fill-opacity:1;fill-rule:evenodd;stroke:none" /><path
           d="m 299.20117,360.09766 c 0,39.0581 -21.27734,70.72363 -47.42187,70.72363 -26.14258,0 -47.33741,-31.66553 -47.33741,-70.72363 0,-39.05762 21.19483,-70.8462 47.33741,-70.8462 26.14453,0 47.42187,31.78858 47.42187,70.8462 l 0,0 m -3.79443,0 c 0,-35.97754 -19.54444,-65.1792 -43.62744,-65.1792 -24.08106,0 -43.54346,29.20166 -43.54346,65.1792 0,35.85449 19.4624,65.05615 43.54346,65.05615 24.083,0 43.62744,-29.20166 43.62744,-65.05615 z"
           id="path90"
           style="fill:#f2594c;fill-opacity:1;fill-rule:evenodd;stroke:none" /><path
           d="m 297.30469,360.09766 c 0,37.45703 -20.45313,67.89013 -45.52539,67.89013 -25.07129,0 -45.44043,-30.4331 -45.44043,-67.89013 0,-37.57959 20.36914,-68.01221 45.44043,-68.01221 25.07226,0 45.52539,30.43262 45.52539,68.01221 l 0,0 m -3.79444,0 c 0,-34.37598 -18.7207,-62.34522 -41.73095,-62.34522 -23.0083,0 -41.64746,27.96924 -41.64746,62.34522 0,34.37548 18.63916,62.22168 41.64746,62.22168 23.01025,0 41.73095,-27.8462 41.73095,-62.22168 z"
           id="path92"
           style="fill:#f15d50;fill-opacity:1;fill-rule:evenodd;stroke:none" /><path
           d="m 295.40674,360.09766 c 0,35.85449 -19.54444,65.05615 -43.62744,65.05615 -24.08106,0 -43.54346,-29.20166 -43.54346,-65.05615 0,-35.97754 19.4624,-65.1792 43.54346,-65.1792 24.083,0 43.62744,29.20166 43.62744,65.1792 l 0,0 m -3.79248,0 c 0,-32.77442 -17.896,-59.51123 -39.83496,-59.51123 -21.93653,0 -39.74951,26.73681 -39.74951,59.51123 0,32.77392 17.81298,59.38818 39.74951,59.38818 21.93896,0 39.83496,-26.61426 39.83496,-59.38818 z"
           id="path94"
           style="fill:#f16253;fill-opacity:1;fill-rule:evenodd;stroke:none" /><path
           d="m 293.51025,360.09766 c 0,34.37548 -18.7207,62.22168 -41.73095,62.22168 -23.0083,0 -41.64746,-27.8462 -41.64746,-62.22168 0,-34.37598 18.63916,-62.34522 41.64746,-62.34522 23.01025,0 41.73095,27.96924 41.73095,62.34522 l 0,0 m -3.79345,0 c 0,-31.2959 -16.98975,-56.67774 -37.9375,-56.67774 -20.86377,0 -37.85303,25.38184 -37.85303,56.67774 0,31.17285 16.98926,56.55468 37.85303,56.55468 20.94775,0 37.9375,-25.38183 37.9375,-56.55468 z"
           id="path96"
           style="fill:#f16658;fill-opacity:1;fill-rule:evenodd;stroke:none" /><path
           d="m 291.61426,360.09766 c 0,32.77392 -17.896,59.38818 -39.83496,59.38818 -21.93653,0 -39.74951,-26.61426 -39.74951,-59.38818 0,-32.77442 17.81298,-59.51123 39.74951,-59.51123 21.93896,0 39.83496,26.73681 39.83496,59.51123 l 0,0 m -3.79395,0 c 0,-29.69434 -16.16455,-53.84327 -36.04101,-53.84327 -19.87451,0 -35.95606,24.14893 -35.95606,53.84327 0,29.69384 16.08155,53.72021 35.95606,53.72021 19.87646,0 36.04101,-24.02637 36.04101,-53.72021 z"
           id="path98"
           style="fill:#f26a5c;fill-opacity:1;fill-rule:evenodd;stroke:none" /><path
           d="m 289.7168,360.09766 c 0,31.17285 -16.98975,56.55468 -37.9375,56.55468 -20.86377,0 -37.85303,-25.38183 -37.85303,-56.55468 0,-31.2959 16.98926,-56.67774 37.85303,-56.67774 20.94775,0 37.9375,25.38184 37.9375,56.67774 l 0,0 m -3.79395,0 c 0,-28.09229 -15.33935,-51.00977 -34.14355,-51.00977 -18.80225,0 -34.05957,22.91748 -34.05957,51.00977 0,28.09228 15.25732,50.88672 34.05957,50.88672 18.8042,0 34.14355,-22.79444 34.14355,-50.88672 z"
           id="path100"
           style="fill:#f26f60;fill-opacity:1;fill-rule:evenodd;stroke:none" /><path
           d="m 287.82031,360.09766 c 0,29.69384 -16.16455,53.72021 -36.04101,53.72021 -19.87451,0 -35.95606,-24.02637 -35.95606,-53.72021 0,-29.69434 16.08155,-53.84327 35.95606,-53.84327 19.87646,0 36.04101,24.14893 36.04101,53.84327 l 0,0 m -3.79345,0 c 0,-26.61377 -14.43262,-48.1753 -32.24756,-48.1753 -17.73096,0 -32.16309,21.56153 -32.16309,48.1753 0,26.49023 14.43213,48.05224 32.16309,48.05224 17.81494,0 32.24756,-21.56201 32.24756,-48.05224 z"
           id="path102"
           style="fill:#f27366;fill-opacity:1;fill-rule:evenodd;stroke:none" /><path
           d="m 285.92285,360.09766 c 0,28.09228 -15.33935,50.88672 -34.14355,50.88672 -18.80225,0 -34.05957,-22.79444 -34.05957,-50.88672 0,-28.09229 15.25732,-51.00977 34.05957,-51.00977 18.8042,0 34.14355,22.91748 34.14355,51.00977 l 0,0 m -3.79346,0 c 0,-25.01123 -13.60742,-45.3418 -30.35009,-45.3418 -16.82325,0 -30.26514,20.33057 -30.26514,45.3418 0,24.88867 13.44189,45.21923 30.26514,45.21923 16.74267,0 30.35009,-20.33056 30.35009,-45.21923 z"
           id="path104"
           style="fill:#f3776a;fill-opacity:1;fill-rule:evenodd;stroke:none" /><path
           d="m 284.02686,360.09766 c 0,26.49023 -14.43262,48.05224 -32.24756,48.05224 -17.73096,0 -32.16309,-21.56201 -32.16309,-48.05224 0,-26.61377 14.43213,-48.1753 32.16309,-48.1753 17.81494,0 32.24756,21.56153 32.24756,48.1753 l 0,0 m -3.79444,0 c 0,-23.41016 -12.78222,-42.50782 -28.45312,-42.50782 -15.75147,0 -28.36866,19.09766 -28.36866,42.50782 0,23.41064 12.61719,42.38427 28.36866,42.38427 15.6709,0 28.45312,-18.97363 28.45312,-42.38427 z"
           id="path106"
           style="fill:#f37c6e;fill-opacity:1;fill-rule:evenodd;stroke:none" /><path
           d="m 282.12939,360.09766 c 0,24.88867 -13.60742,45.21923 -30.35009,45.21923 -16.82325,0 -30.26514,-20.33056 -30.26514,-45.21923 0,-25.01123 13.44189,-45.3418 30.26514,-45.3418 16.74267,0 30.35009,20.33057 30.35009,45.3418 l 0,0 m -3.79394,0 c 0,-21.93164 -11.95752,-39.67481 -26.55615,-39.67481 -14.67871,0 -26.47266,17.74317 -26.47266,39.67481 0,21.80859 11.79395,39.55127 26.47266,39.55127 14.59863,0 26.55615,-17.74268 26.55615,-39.55127 z"
           id="path108"
           style="fill:#f38074;fill-opacity:1;fill-rule:evenodd;stroke:none" /><path
           d="m 280.23242,360.09766 c 0,23.41064 -12.78222,42.38427 -28.45312,42.38427 -15.75147,0 -28.36866,-18.97363 -28.36866,-42.38427 0,-23.41016 12.61719,-42.50782 28.36866,-42.50782 15.6709,0 28.45312,19.09766 28.45312,42.50782 l 0,0 m -3.79297,0 c 0,-20.33008 -11.05127,-36.83985 -24.66015,-36.83985 -13.68897,0 -24.5752,16.50977 -24.5752,36.83985 0,20.20703 10.88623,36.71728 24.5752,36.71728 13.60888,0 24.66015,-16.51025 24.66015,-36.71728 z"
           id="path110"
           style="fill:#f48579;fill-opacity:1;fill-rule:evenodd;stroke:none" /><path
           d="m 278.33545,360.09766 c 0,21.80859 -11.95752,39.55127 -26.55615,39.55127 -14.67871,0 -26.47266,-17.74268 -26.47266,-39.55127 0,-21.93164 11.79395,-39.67481 26.47266,-39.67481 14.59863,0 26.55615,17.74317 26.55615,39.67481 l 0,0 m -3.79297,0 c 0,-18.72852 -10.22607,-34.00684 -22.76318,-34.00684 -12.61621,0 -22.67871,15.27832 -22.67871,34.00684 0,18.72754 10.0625,33.88379 22.67871,33.88379 12.53711,0 22.76318,-15.15625 22.76318,-33.88379 z"
           id="path112"
           style="fill:#f4897e;fill-opacity:1;fill-rule:evenodd;stroke:none" /><path
           d="m 276.43945,360.09766 c 0,20.20703 -11.05127,36.71728 -24.66015,36.71728 -13.68897,0 -24.5752,-16.51025 -24.5752,-36.71728 0,-20.33008 10.88623,-36.83985 24.5752,-36.83985 13.60888,0 24.66015,16.50977 24.66015,36.83985 l 0,0 m -3.79394,0 c 0,-17.12598 -9.40186,-31.17237 -20.86621,-31.17237 -11.54444,0 -20.78125,14.04639 -20.78125,31.17237 0,17.12695 9.23681,31.04931 20.78125,31.04931 11.46435,0 20.86621,-13.92236 20.86621,-31.04931 z"
           id="path114"
           style="fill:#f48e84;fill-opacity:1;fill-rule:evenodd;stroke:none" /><path
           d="m 274.54248,360.09766 c 0,18.72754 -10.22607,33.88379 -22.76318,33.88379 -12.61621,0 -22.67871,-15.15625 -22.67871,-33.88379 0,-18.72852 10.0625,-34.00684 22.67871,-34.00684 12.53711,0 22.76318,15.27832 22.76318,34.00684 l 0,0 m -3.79443,0 c 0,-15.64844 -8.49414,-28.33887 -18.96875,-28.33887 -10.47315,0 -18.88477,12.69043 -18.88477,28.33887 0,15.52539 8.41162,28.21582 18.88477,28.21582 10.47461,0 18.96875,-12.69043 18.96875,-28.21582 z"
           id="path116"
           style="fill:#f59389;fill-opacity:1;fill-rule:evenodd;stroke:none" /><path
           d="m 272.64551,360.09766 c 0,17.12695 -9.40186,31.04931 -20.86621,31.04931 -11.54444,0 -20.78125,-13.92236 -20.78125,-31.04931 0,-17.12598 9.23681,-31.17237 20.78125,-31.17237 11.46435,0 20.86621,14.04639 20.86621,31.17237 l 0,0 m -3.79346,0 c 0,-14.0459 -7.6709,-25.5044 -17.07275,-25.5044 -9.48291,0 -16.98828,11.4585 -16.98828,25.5044 0,14.04589 7.50537,25.38134 16.98828,25.38134 9.40185,0 17.07275,-11.33545 17.07275,-25.38134 z"
           id="path118"
           style="fill:#f5978e;fill-opacity:1;fill-rule:evenodd;stroke:none" /><path
           d="m 270.74805,360.09766 c 0,15.52539 -8.49414,28.21582 -18.96875,28.21582 -10.47315,0 -18.88477,-12.69043 -18.88477,-28.21582 0,-15.64844 8.41162,-28.33887 18.88477,-28.33887 10.47461,0 18.96875,12.69043 18.96875,28.33887 l 0,0 m -3.79297,0 c 0,-12.44434 -6.84522,-22.6709 -15.17578,-22.6709 -8.41065,0 -15.17383,10.22656 -15.17383,22.6709 0,12.44384 6.76318,22.54785 15.17383,22.54785 8.33056,0 15.17578,-10.10401 15.17578,-22.54785 z"
           id="path120"
           style="fill:#f59c94;fill-opacity:1;fill-rule:evenodd;stroke:none" /><path
           d="m 268.85205,360.09766 c 0,14.04589 -7.6709,25.38134 -17.07275,25.38134 -9.48291,0 -16.98828,-11.33545 -16.98828,-25.38134 0,-14.0459 7.50537,-25.5044 16.98828,-25.5044 9.40185,0 17.07275,11.4585 17.07275,25.5044 l 0,0 m -3.79394,0 c 0,-10.96534 -5.9375,-19.83692 -13.27881,-19.83692 -7.33887,0 -13.27735,8.87158 -13.27735,19.83692 0,10.84228 5.93848,19.71386 13.27735,19.71386 7.34131,0 13.27881,-8.87158 13.27881,-19.71386 z"
           id="path122"
           style="fill:#f6a39c;fill-opacity:1;fill-rule:evenodd;stroke:none" /><path
           d="m 266.95508,360.09766 c 0,12.44384 -6.84522,22.54785 -15.17578,22.54785 -8.41065,0 -15.17383,-10.10401 -15.17383,-22.54785 0,-12.44434 6.76318,-22.6709 15.17383,-22.6709 8.33056,0 15.17578,10.22656 15.17578,22.6709 l 0,0 m -3.79444,0 c 0,-9.36377 -5.11279,-17.00293 -11.38134,-17.00293 -6.34864,0 -11.37891,7.63916 -11.37891,17.00293 0,9.24072 5.03027,16.87988 11.37891,16.87988 6.26855,0 11.38134,-7.63916 11.38134,-16.87988 z"
           id="path124"
           style="fill:#f4a5a0;fill-opacity:1;fill-rule:evenodd;stroke:none" /><path
           d="m 265.05811,360.09766 c 0,10.84228 -5.9375,19.71386 -13.27881,19.71386 -7.33887,0 -13.27735,-8.87158 -13.27735,-19.71386 0,-10.96534 5.93848,-19.83692 13.27735,-19.83692 7.34131,0 13.27881,8.87158 13.27881,19.83692 l 0,0 m -3.79346,0 c 0,-7.76172 -4.28858,-14.16895 -9.48535,-14.16895 -5.27735,0 -9.48291,6.40723 -9.48291,14.16895 0,7.7622 4.20556,14.04589 9.48291,14.04589 5.19677,0 9.48535,-6.28369 9.48535,-14.04589 z"
           id="path126"
           style="fill:#f4aaa6;fill-opacity:1;fill-rule:evenodd;stroke:none" /><path
           d="m 263.16064,360.09766 c 0,9.24072 -5.11279,16.87988 -11.38134,16.87988 -6.34864,0 -11.37891,-7.63916 -11.37891,-16.87988 0,-9.36377 5.03027,-17.00293 11.37891,-17.00293 6.26855,0 11.38134,7.63916 11.38134,17.00293 l 0,0 m -3.79296,0 c 0,-6.2837 -3.46436,-11.33594 -7.58838,-11.33594 -4.20557,0 -7.58692,5.05224 -7.58692,11.33594 0,6.16064 3.38135,11.21289 7.58692,11.21289 4.12402,0 7.58838,-5.05225 7.58838,-11.21289 z"
           id="path128"
           style="fill:#f4afac;fill-opacity:1;fill-rule:evenodd;stroke:none" /><path
           d="m 261.26465,360.09766 c 0,7.7622 -4.28858,14.04589 -9.48535,14.04589 -5.27735,0 -9.48291,-6.28369 -9.48291,-14.04589 0,-7.76172 4.20556,-14.16895 9.48291,-14.16895 5.19677,0 9.48535,6.40723 9.48535,14.16895 l 0,0 m -3.79346,0 c 0,-4.68164 -2.55713,-8.50098 -5.69189,-8.50098 -3.1333,0 -5.68946,3.81934 -5.68946,8.50098 0,4.68213 2.55616,8.37841 5.68946,8.37841 3.13476,0 5.69189,-3.69628 5.69189,-8.37841 z"
           id="path130"
           style="fill:#f5b6b4;fill-opacity:1;fill-rule:evenodd;stroke:none" /><path
           d="m 259.36768,360.09766 c 0,6.16064 -3.46436,11.21289 -7.58838,11.21289 -4.20557,0 -7.58692,-5.05225 -7.58692,-11.21289 0,-6.2837 3.38135,-11.33594 7.58692,-11.33594 4.12402,0 7.58838,5.05224 7.58838,11.33594 l 0,0 m -3.79493,0 c 0,-3.08008 -1.73095,-5.66797 -3.79345,-5.66797 -2.14307,0 -3.792,2.58789 -3.792,5.66797 0,3.20361 1.64893,5.54492 3.792,5.54492 2.0625,0 3.79345,-2.34131 3.79345,-5.54492 z"
           id="path132"
           style="fill:#f5bbba;fill-opacity:1;fill-rule:evenodd;stroke:none" /><path
           d="m 257.47119,360.09766 c 0,4.68213 -2.55713,8.37841 -5.69189,8.37841 -3.1333,0 -5.68946,-3.69628 -5.68946,-8.37841 0,-4.68164 2.55616,-8.50098 5.68946,-8.50098 3.13476,0 5.69189,3.81934 5.69189,8.50098 z"
           id="path134"
           style="fill:#f6c0c0;fill-opacity:1;fill-rule:evenodd;stroke:none" /><path
           d="m 255.57275,360.09766 c 0,3.20361 -1.73095,5.54492 -3.79345,5.54492 -2.14307,0 -3.792,-2.34131 -3.792,-5.54492 0,-3.08008 1.64893,-5.66797 3.792,-5.66797 2.0625,0 3.79345,2.58789 3.79345,5.66797 z"
           id="path136"
           style="fill:#f6c5c9;fill-opacity:1;fill-rule:evenodd;stroke:none" /><path
           d="m 253.67676,360.09766 c 0,1.60156 -0.90625,2.83398 -1.89746,2.83398 -1.07129,0 -1.896,-1.23242 -1.896,-2.83398 0,-1.47852 0.82471,-2.83399 1.896,-2.83399 0.99121,0 1.89746,1.35547 1.89746,2.83399 z"
           id="path138"
           style="fill:#f6cacf;fill-opacity:1;fill-rule:evenodd;stroke:none" /></g></g><path
       d="m 215.88652,536.15029 c -26.39013,1.84815 -47.99756,-21.7041 -46.26611,-47.08593 1.73242,-25.38135 28.53516,-44.08594 47.17383,-42.85401 18.63818,1.23242 50.38965,17.22608 50.71924,38.91065 0.33056,23.90283 -13.44287,48.31884 -51.62696,51.02929 z"
       id="path140"
       style="fill:none;stroke:#222222;stroke-width:9;stroke-linecap:butt;stroke-linejoin:miter;stroke-miterlimit:4;stroke-opacity:1;stroke-dasharray:none" /></g></svg>
